<?xml version="1.0" encoding="utf-8"?>
<!-- Generator: Adobe Illustrator 25.0.1, SVG Export Plug-In . SVG Version: 6.00 Build 0)  -->
<svg version="1.1" id="Layer_1" xmlns="http://www.w3.org/2000/svg" xmlns:xlink="http://www.w3.org/1999/xlink" x="0px" y="0px"
	 viewBox="0 0 42.4 58.4" style="enable-background:new 0 0 42.4 58.4;" xml:space="preserve">
<style type="text/css">
	.st0{fill:#59879E;}
	.st1{fill:#96C4D6;}
</style>
<path class="st0" d="M2.2,40.4c0.6,5.1,4,9.5,8.4,12.1c3.9,2.3,8.7,3.2,13.1,2.6c4.2-0.6,8.2-2.6,10.8-6c3.2-3.9,4.1-9.2,4.2-14.1
	c0.2-5.6-0.9-11.2-3.2-16.2c-1.1-2.4-2.6-4.5-4-6.6c-1.4-2.1-2.9-4.1-4.7-5.8c-1.7-1.6-3.8-3-6.2-3.4C18,2.6,15.3,3.4,13,4.7
	C10.8,6,8.9,7.8,7.5,9.9C6,12.2,5,14.6,4.2,17.2s-1.2,5.3-1.5,8c-0.1,0.5-0.1,1.1-0.1,1.6C2.4,27.1,1.9,38,2.2,40.4z M6,52.1
	c-1.8-1.8-2.9-4-3.6-6.4C2,44.5,1.7,43.3,1.6,42c0-0.2-0.6-2.6-0.6-3.7c-0.3-3.2-0.2-6.4,0-9.6s0.6-6.3,1.3-9.4
	c0.6-2.7,1.2-5.3,2.2-7.9c0.9-2.5,2.2-5,4.2-6.9c2-1.8,4.6-2.9,7.1-3.4c2.6-0.5,5.4-0.5,7.9,0.5c1.2,0.5,2.3,1.2,3.4,1.9
	c1.1,0.8,2.1,1.6,3.1,2.5c3.9,3.7,6.9,8.5,8.8,13.6c1.7,4.5,2.5,9.3,2.3,14.2c-0.2,4.4-1.1,8.9-3,12.9c-1.9,3.9-4.8,7.4-8.9,9.1
	c-2.4,1-5,1.4-7.6,1.4c-2.9,0.1-5.9-0.3-8.8-1.1C10.4,55.4,7.9,54.1,6,52.1z"/>
<path d="M8.3,55.3C6,53.9,4.1,52,2.9,49.6c-0.6-1.2-1-2.4-1.4-3.6c0-0.2-0.1-0.4-0.1-0.6C1.2,44.7,1,44,0.9,43.2
	C-0.3,36.7-0.2,30,0.6,23.5c0.4-3,1-5.9,1.8-8.8C3.2,12,4.1,9.3,5.6,6.9s3.6-4.2,6.1-5.3C14.3,0.4,17.2-0.1,20,0
	c1.4,0.1,2.7,0.3,4,0.8c1.2,0.5,2.4,1.2,3.5,1.9c2.3,1.5,4.3,3.4,6,5.6c3.6,4.3,6.2,9.6,7.7,15c1.3,4.6,1.5,9.5,0.9,14.2
	c-0.6,4.6-2,9.2-4.7,13.1c-1.3,1.9-2.9,3.5-4.8,4.8c-2,1.4-4.3,2.2-6.6,2.6c-3,0.5-6.1,0.5-9.1,0.1C13.9,57.7,10.9,56.8,8.3,55.3z
	 M2.4,45.8c0.7,2.4,1.8,4.6,3.6,6.4c1.9,2,4.5,3.2,7.1,4c2.8,0.9,5.8,1.2,8.8,1.2c2.6-0.1,5.2-0.4,7.6-1.4c4.1-1.7,7-5.2,8.9-9.1
	c1.9-4,2.8-8.5,3-12.9c0.2-4.8-0.6-9.6-2.3-14.2c-1.9-5.1-4.9-9.8-8.8-13.6c-1-0.9-2-1.7-3.1-2.5c-1-0.7-2.2-1.4-3.4-1.9
	c-2.5-1-5.3-1-7.9-0.5s-5.2,1.6-7.1,3.4c-2,1.8-3.3,4.3-4.2,6.9S3,16.8,2.4,19.5c-0.7,3.1-1.1,6.2-1.3,9.4s-0.3,6.4,0,9.6
	c0.1,1.2,0.7,3.6,0.7,3.7C1.7,43.3,2,44.6,2.4,45.8z"/>
<path d="M29,9.9C27.5,8,25.9,6.2,23.8,5c-2.2-1.3-4.7-1.7-7.2-1c-2.4,0.6-4.8,2-6.6,3.8s-3.1,4-4.1,6.3c-1,2.4-1.7,4.9-2.2,7.5
	c-0.9,5.1-1,10.4-1.1,15.6c0.2,2.1,0.3,4.3,1.1,6.2c1.7,4.6,5.9,8.3,10.5,9.8c3.9,1.4,8.3,1.5,12.3,0.2c3.9-1.3,7.2-4,9.1-7.7
	c1.1-2.2,1.6-4.5,1.9-6.9c0.4-2.6,0.5-5.3,0.2-8c-0.4-5.4-1.9-10.7-4.8-15.3C31.7,13.7,30.4,11.7,29,9.9z M31.6,12.1
	c1.5,2.1,2.9,4.3,4,6.6c2.3,5.1,3.4,10.7,3.2,16.2c-0.1,4.9-1,10.1-4.2,14.1c-2.7,3.3-6.6,5.3-10.8,6c-4.5,0.6-9.2-0.2-13.1-2.5
	c-4.4-2.6-7.8-7-8.4-12.1C1.9,38,2.4,27.1,2.6,26.8c0-0.5,0.1-1.1,0.1-1.6c0.3-2.7,0.7-5.4,1.5-8c0.7-2.6,1.8-5,3.2-7.2
	s3.3-4,5.6-5.3s5-2.1,7.6-1.7c2.4,0.4,4.5,1.7,6.2,3.4C28.7,8.1,30.2,10.1,31.6,12.1z"/>
<path class="st1" d="M37.8,30.9c0.2,2.7,0.1,5.3-0.3,8c-0.3,2.4-0.9,4.8-1.9,6.9c-1.9,3.7-5.2,6.4-9.1,7.7c-4,1.3-8.4,1.1-12.3-0.2
	c-4.6-1.6-8.8-5.2-10.5-9.8c-0.7-2-0.9-4.1-1.1-6.2C2.7,32,2.8,26.7,3.7,21.5C4.2,19,4.9,16.4,5.9,14c1-2.3,2.3-4.5,4.1-6.3
	s4.2-3.3,6.7-3.9s5-0.2,7.1,1c2,1.2,3.7,3,5.1,4.9c1.4,1.8,2.7,3.8,4,5.8C35.9,20.2,37.4,25.5,37.8,30.9z"/>
</svg>
