<?xml version="1.0" encoding="utf-8"?>
<!-- Generator: Adobe Illustrator 25.0.1, SVG Export Plug-In . SVG Version: 6.00 Build 0)  -->
<svg version="1.1"
	 id="svg2" xmlns:cc="http://creativecommons.org/ns#" xmlns:dc="http://purl.org/dc/elements/1.1/" xmlns:inkscape="http://www.inkscape.org/namespaces/inkscape" xmlns:ns1="http://sozi.baierouge.fr" xmlns:rdf="http://www.w3.org/1999/02/22-rdf-syntax-ns#" xmlns:sodipodi="http://sodipodi.sourceforge.net/DTD/sodipodi-0.dtd" xmlns:svg="http://www.w3.org/2000/svg"
	 xmlns="http://www.w3.org/2000/svg" xmlns:xlink="http://www.w3.org/1999/xlink" x="0px" y="0px" viewBox="0 0 495.1 365.6"
	 style="enable-background:new 0 0 495.1 365.6;" xml:space="preserve">
<style type="text/css">
	.st0{fill:#98B3CB;fill-opacity:0.1798;stroke:#000000;stroke-width:1.0253;}
	.st1{fill:#98B3CB;fill-opacity:0.1798;stroke:#000000;stroke-width:1.0464;}
</style>
<sodipodi:namedview  bordercolor="#666666" borderopacity="1.0" id="base" inkscape:current-layer="layer1" inkscape:cx="752.08557" inkscape:cy="249.32443" inkscape:document-units="px" inkscape:guide-bbox="true" inkscape:pageopacity="0.0" inkscape:pageshadow="2" inkscape:window-height="646" inkscape:window-maximized="1" inkscape:window-width="1280" inkscape:window-x="0" inkscape:window-y="24" inkscape:zoom="0.7" pagecolor="#ffffff" showgrid="false" showguides="true">
	</sodipodi:namedview>
<g id="layer1" transform="translate(0 -552.36)" inkscape:groupmode="layer" inkscape:label="Layer 1">
	<g id="g3035" transform="translate(-48.571 192.86)">
		<g id="g3142" transform="translate(21.429 -35.714)">
			<path id="path2843-4" sodipodi:nodetypes="ccccc" class="st0" d="M54.4,623.6c-92.8,100.3,131.4,197.6,320.8,73
				c261.7-166.5,121.2-304.2-102.8-298.2c-90.6,5.2-214-9.7-196.3,111.1c-0.1,91.7,2.6,72.3-21.9,114.5"/>
			<path id="path2843-4-1" sodipodi:nodetypes="ccccc" class="st1" d="M49.7,625.9c-94.7,102.4,134.1,201.7,327.5,74.5
				c267.1-169.9,123.7-310.5-104.9-304.4c-92.5,5.3-218.4-9.9-200.4,113.4c-0.1,93.6,2.6,73.8-22.3,116.8"/>
		</g>
	</g>
</g>
</svg>
