<?xml version="1.0" encoding="utf-8"?>
<!-- Generator: Adobe Illustrator 25.0.1, SVG Export Plug-In . SVG Version: 6.00 Build 0)  -->
<svg version="1.1" id="Layer_1" xmlns="http://www.w3.org/2000/svg" xmlns:xlink="http://www.w3.org/1999/xlink" x="0px" y="0px"
	 viewBox="0 0 161.1 249.9" style="enable-background:new 0 0 161.1 249.9;" xml:space="preserve">
<style type="text/css">
	.st0{fill:#56A45F;}
	.st1{fill:#9EC981;}
	.st2{fill:#CDE5BD;}
</style>
<path d="M160,26.5c1.2,5.6,1.3,11.5,0.9,17.2c-0.9,13.8-4,27.4-4.3,41.3c-0.2,7.1,0.4,14.3,0.5,21.4c0.1,7.2,0,14.4-0.3,21.7
	c-0.6,14.7-1.1,29.3-0.9,44c0.1,7.2,0.7,14.3,1.2,21.5c0.4,6.5,0.9,13.2,0,19.7c-1.6,11.4-7.6,22-17.6,28.1
	c-5,3.1-10.7,4.9-16.3,6.2c-6.1,1.3-12.4,2.2-18.7,2.3c-7.2,0.1-14.4-0.7-21.6-1.5c-7.2-0.9-14.4-1.6-21.7-1.9
	c-7.3-0.2-14.7-0.1-22-0.5c-5.6-0.2-11.1-0.6-16.5-2.1c-9-2.6-18.3-7.9-21.3-17.2c-2.2-6.9-1.4-13.7,0.1-20.5l1,0.2
	c-1.3,5.7-2.1,11.6-0.8,17.4c1.1,5,3.7,9.2,7.8,12.4c8.4,6.7,19.3,8.2,29.6,8.6c7,0.3,14,0.2,21,0.4c7.1,0.2,14.1,0.9,21.2,1.7
	c6.8,0.8,13.7,1.7,20.6,1.7c6.5,0.1,12.9-0.7,19.2-1.9c5.6-1.1,11.2-2.8,16.3-5.6c5.2-2.9,9.6-7,12.7-12c3-4.8,4.8-10.4,5.7-16
	c0.9-6.5,0.4-13.1,0-19.6c-0.5-7.1-1.1-14.2-1.2-21.2c-0.1-7,0-14,0.1-21c0.2-14.1,1.2-28.1,1.2-42.2c0-7.1-0.5-14.1-0.5-21.2
	c0-6.9,0.7-13.8,1.6-20.7c1.7-12.8,4.5-26,2.4-38.9c-0.1-0.6-0.2-1.1-0.3-1.7L160,26.5z M159.9,26.1c0,0.1,0.1,0.3,0.1,0.4l-0.8,0.2
	c-0.8-3.9-2.3-7.5-4.3-11c-0.6-1.1-1.4-2.3-2.3-3.4c-0.8-0.9-1.7-1.8-2.6-2.5c-0.6-0.5-1.3-0.9-1.9-1.3c-0.1-0.1-0.3-0.1-0.5-0.2
	c-0.5-0.3-1-0.6-1.6-0.9c-0.1,0-0.1-0.1-0.2-0.1c-0.2-0.1-0.4-0.2-0.5-0.2c-3.2-1.4-6.8-2.3-10.2-2.9c-5.5-1-11.1-1.5-16.7-1.8
	c-13.9-0.8-27.8-0.2-41.8-0.5c-7.7-0.1-15.4-0.4-23.2-0.7v-1c0.6,0,1.2,0,1.9,0c7.4,0.2,14.8,0.4,22.1,0.5c7.2,0.1,14.4,0,21.5,0
	c7.1,0,14.3,0.1,21.4,0.6c5.5,0.4,11.1,0.9,16.6,2c5.1,1,10.3,2.7,14.3,6c1.8,1.5,3.4,3.4,4.8,5.5c0.5,1,1,2,1.5,3
	c0,0.1,0.1,0.3,0.1,0.4c0.2,0.4,0.4,0.8,0.5,1.2c0.5,1.1,0.9,2.2,1.2,3.3c0.1,0.6,0.3,1.2,0.5,1.8C159.9,25.1,159.9,25.6,159.9,26.1
	z"/>
<path class="st0" d="M159.5,28.4c2,12.9-0.8,26.1-2.4,38.9c-0.9,6.9-1.5,13.8-1.6,20.7c0,7.1,0.5,14.1,0.5,21.2
	c0,14.1-0.9,28.1-1.2,42.2c-0.1,7-0.2,14-0.1,21c0.1,7.1,0.7,14.2,1.2,21.2c0.4,6.5,0.9,13.1,0,19.6c-0.8,5.6-2.7,11.2-5.7,16
	c-3.1,5.1-7.5,9.1-12.7,12c-5.1,2.8-10.7,4.5-16.3,5.6c-6.3,1.3-12.8,2-19.2,1.9c-6.9-0.1-13.7-0.9-20.6-1.7
	c-7.1-0.9-14.1-1.5-21.2-1.7c-7-0.2-14-0.1-21-0.4c-10.4-0.5-21.3-1.9-29.6-8.6c-4-3.2-6.6-7.4-7.8-12.4c-1.3-5.8-0.5-11.7,0.8-17.4
	c0.1-0.5,0.3-1,0.4-1.5c1.4-5.8,3.3-11.6,4-17.6c0.9-6.9,0.8-13.9,0.5-20.9c-0.3-6.9-0.9-13.7-1.4-20.6c-0.5-7.1-0.8-14.3-1-21.4
	c-0.3-7-0.5-14-0.9-21s-1-14-1.6-21c-0.6-6.9-1.1-13.9-1-20.8c0-6.9,0.8-13.8,1.2-20.7c0.3-6.4,0.6-12.9,1.5-19.3
	c0.6-5.2,1.9-10.5,6.1-14c3.5-3,8.1-4.4,12.5-5.3s8.9-1.1,13.4-1.2c5.8-0.1,11.5,0,17.3,0.1c7.8,0.2,15.5,0.5,23.3,0.6
	c13.9,0.2,27.9-0.4,41.8,0.5c5.6,0.3,11.2,0.8,16.7,1.8c3.4,0.6,7,1.5,10.2,2.9c0.2,0.1,0.4,0.1,0.5,0.2c0.1,0,0.1,0.1,0.2,0.1
	c0.5,0.2,1.1,0.6,1.6,0.9c0.1,0.1,0.3,0.1,0.5,0.2c0.7,0.4,1.3,0.8,1.9,1.3c1,0.7,1.8,1.6,2.6,2.5c0.9,1.1,1.7,2.3,2.3,3.4
	c2,3.4,3.5,7.1,4.3,11C159.3,27.2,159.4,27.8,159.5,28.4z M155,35.9c0.1-4.3,0.1-8.8-1-13c-0.7-2.7-1.8-5.3-3.8-7.1
	c-0.5-0.5-1-0.9-1.5-1.4c-4.5-3.5-10-5.6-15.6-6.7c-5.7-1.1-11.5-1.2-17.2-0.6C108.6,7.8,101.3,8,94,7.9c-7.5-0.2-14.9-1-22.4-1.3
	c-7.3-0.3-14.5-0.4-21.8-0.9C39.5,5,28.4,4.8,18.9,9.5c-3.9,1.9-7.4,4.9-9.4,8.8c-1.1,2.1-1.7,4.4-2,6.7C7,28.4,6.7,31.8,6.6,35.2
	c-0.4,7-0.2,14.1-0.2,21.1c0.1,7.2,0,14.4,0.2,21.6C7,92.7,8.7,107.4,9,122.2c0.1,7.3,0.2,14.6,0.5,21.9c0.4,7.4,1,14.7,1.3,22.1
	c0.2,5.6,0.3,11.2-0.3,16.8c-0.4,3.8-1.1,7.5-1.7,11.3c-1.3,7.8-2.5,15.8-2,23.8c0.5,7,2.9,13.9,8.8,18c3.6,2.5,7.9,3.6,12.2,4.2
	c6.9,0.9,13.9,0.8,20.9,0.8c3.6,0,7.1,0.1,10.7,0.4s7.1,0.9,10.7,1.2c7.4,0.7,14.8,1.2,22.2,1.8c11.5,0.9,23.1,2.7,34.4-0.4
	c5.2-1.4,9.9-4,13.6-8c3.8-4.1,6.2-9.2,7.8-14.4c3.7-12.4,3.4-25.7,2.6-38.4c-0.5-7.2-1.2-14.4-1.5-21.5c-0.4-7.4-0.2-14.7,0.4-22.1
	c0.6-7.3,1.4-14.5,1.5-21.8c0.2-7.3-0.4-14.7-0.5-22s0.2-14.7,1-21.9c0.8-7.4,1.8-14.7,2.4-22C154.6,46.4,154.8,41.1,155,35.9z"/>
<path d="M154,22.9c1.1,4.2,1.2,8.7,1,13c-0.2,5.2-0.4,10.5-0.9,15.7c-0.6,7.4-1.7,14.7-2.4,22c-0.8,7.3-1.1,14.6-1,21.9
	s0.7,14.7,0.5,22s-0.9,14.5-1.5,21.8c-0.7,7.4-0.8,14.7-0.4,22.1c0.4,7.2,1,14.4,1.5,21.5c0.8,12.7,1,26-2.6,38.4
	c-1.6,5.3-4,10.4-7.8,14.4c-3.7,4-8.4,6.5-13.6,8c-11.3,3.2-23,1.4-34.4,0.4c-7.4-0.6-14.8-1-22.2-1.8c-3.6-0.4-7.1-0.9-10.7-1.2
	c-3.6-0.3-7.1-0.4-10.7-0.4c-7,0-14,0.2-20.9-0.8c-4.3-0.6-8.6-1.7-12.2-4.2c-6-4.1-8.3-11.1-8.8-18c-0.6-7.9,0.7-15.9,2-23.8
	c0.6-3.8,1.3-7.5,1.7-11.3c0.6-5.6,0.5-11.2,0.3-16.8c-0.3-7.4-0.9-14.7-1.3-22.1c-0.4-7.3-0.4-14.6-0.5-21.9
	c-0.3-14.8-2-29.5-2.4-44.3c-0.2-7.2-0.1-14.4-0.2-21.6c-0.1-7-0.2-14.1,0.2-21.1c0.2-3.4,0.5-6.8,0.9-10.2c0.3-2.3,0.9-4.6,2-6.7
	c2-3.9,5.5-6.9,9.4-8.8c9.5-4.7,20.6-4.5,30.9-3.8c7.2,0.5,14.5,0.6,21.8,0.9c7.5,0.2,14.9,1.1,22.4,1.3c7.3,0.2,14.7-0.1,21.9-0.8
	c5.7-0.5,11.6-0.4,17.2,0.6c5.6,1.1,11.1,3.2,15.6,6.7c0.5,0.4,1,0.9,1.5,1.4C152.1,17.6,153.3,20.2,154,22.9z M154,37.8
	c0-0.3,0-0.7,0-1c0-0.2,0-0.5,0-0.8c-0.1-1.1-0.1-2.1-0.2-3.2c0-1.1-0.1-2.2-0.2-3.3c-0.1-0.8-0.2-1.6-0.2-2.4
	c-0.6-2.2-0.9-4.4-1.6-6.6c-0.8-2.5-2.4-4.4-4.6-5.9c-9.7-7-22-7.4-33.4-6.4C106.6,8.8,99.5,9,92.4,8.7c-7.2-0.2-14.3-1-21.5-1.3
	C63.8,7.2,56.7,7,49.6,6.5c-5.9-0.4-11.8-0.7-17.7,0.1c-8.7,1.1-18.7,4.5-22.3,13.2c-1.1,2.6-1.4,5.4-1.7,8.2
	c-0.4,3.4-0.6,6.8-0.7,10.2c-0.2,6.9-0.1,13.7,0,20.6c0.1,14.3,0.3,28.5,1.5,42.8c0.6,7.1,1,14.3,1.1,21.4
	c0.1,7.1,0.2,14.1,0.5,21.2c0.4,7.2,1,14.4,1.3,21.6c0.2,5.5,0.4,11-0.2,16.4c-0.8,7.6-2.4,15-3.3,22.6c-0.8,7.3-1.3,15.2,1.5,22.1
	c1.3,3.2,3.4,6,6.2,8c3.8,2.7,8.3,3.7,12.8,4.3c6.8,0.8,13.6,0.6,20.5,0.6c3.4,0,6.8,0.1,10.2,0.4c3.5,0.3,7,0.8,10.5,1.2
	c7.1,0.7,14.3,1.1,21.5,1.7c6,0.5,12,1.3,18,1.4c10.7,0.3,22.6-1.3,30.2-9.5c7.8-8.5,9.7-20.8,10.4-31.9c0.9-14.1-1.1-28.2-1.8-42.3
	c-0.4-7.1-0.2-14.1,0.4-21.1c0.6-7.1,1.3-14.2,1.5-21.3c0.2-7.2-0.3-14.4-0.5-21.5c-0.1-7.2,0.1-14.4,0.8-21.5
	c0.7-7,1.7-14.1,2.4-21.2C153.5,48.9,153.8,43.3,154,37.8z"/>
<path class="st1" d="M154.1,36.8c0,0.3,0,0.7,0,1c-0.3,5.6-0.5,11.1-1.1,16.6c-0.7,7-1.7,14.1-2.4,21.2c-0.7,7.1-0.9,14.3-0.8,21.5
	c0.1,7.2,0.7,14.4,0.5,21.5s-0.9,14.2-1.5,21.3s-0.8,14.1-0.4,21.2c0.7,14.1,2.7,28.2,1.8,42.3c-0.7,11.1-2.6,23.4-10.4,31.9
	c-7.7,8.3-19.5,9.8-30.2,9.5c-6-0.1-12-1-18-1.4c-7.2-0.6-14.4-1-21.5-1.7c-3.5-0.4-7-0.9-10.5-1.2c-3.4-0.3-6.8-0.4-10.2-0.4
	c-6.8,0-13.7,0.2-20.5-0.6c-4.5-0.6-9.1-1.6-12.8-4.3c-2.8-2-4.9-4.8-6.2-8c-2.8-6.9-2.3-14.9-1.5-22.1c0.9-7.6,2.5-15,3.3-22.6
	c0.6-5.4,0.4-10.9,0.2-16.4c-0.3-7.2-0.9-14.4-1.3-21.6c-0.4-7.1-0.4-14.2-0.5-21.2C10,116.2,9.6,109,9,101.9
	C7.6,87.5,7.4,73.3,7.3,59c-0.1-6.9-0.2-13.8,0-20.7c0.1-3.4,0.3-6.9,0.7-10.2c0.3-2.8,0.6-5.6,1.7-8.2C13.3,11.1,23.3,7.8,32,6.7
	c5.9-0.8,11.8-0.5,17.7-0.1C56.8,7.1,63.9,7.2,71,7.5c7.2,0.2,14.3,1,21.5,1.3c7.1,0.2,14.3,0.1,21.4-0.5c11.4-1,23.7-0.6,33.4,6.4
	c2.2,1.5,3.8,3.4,4.6,5.9c0.6,2.2,0.9,4.4,1.6,6.6c0,0.8,0.1,1.6,0.2,2.4c0.1,1.1,0.1,2.2,0.2,3.3c0,1.1,0.1,2.2,0.2,3.2
	C154.1,36.2,154.1,36.5,154.1,36.8z M151.8,46.1c0.1-3,0.2-6.1,0.1-9.1c-0.1-2.8,0-5.9-0.8-8.7c-1.3-4.8-5-8.8-8.3-12.4
	c-3-3.2-7.1-4.8-11.5-5.4c-4.7-0.6-9.4-0.1-14,0.3c-5.7,0.5-11.5,0.9-17.2,0.6c-0.2,0-0.5,0-0.7,0c-0.3-0.1-0.6-0.1-0.9-0.2
	c-0.6-0.1-1.3-0.1-1.9-0.1C95,11,93.4,11,91.9,10.8c-1.6-0.2-3.2-0.4-4.8-0.6C85.6,10,84,9.6,82.5,9.5c-0.9,0-1.7-0.1-2.5-0.1
	c-0.5,0-1,0-1.4,0.1c-1.9,0-3.8,0.1-5.7,0C66.4,9.4,59.8,9.1,53.3,9c-6.1-0.1-12.4-0.4-18.5,0.1c-4.1,0.3-8.3,1.2-12.1,2.8
	c-3.6,1.5-6.9,3.7-9.2,6.8c-2.9,4-3.6,8.8-3.9,13.6c-0.5,6.4-0.1,12.7,0.2,19c0.3,6.4,0.3,12.8,0.2,19.2s-0.2,12.7,0.1,19.1
	s1.4,12.7,1.7,19.1c0.4,6.4,0.3,12.9,0.4,19.3c0.1,6.5,0.4,12.9,0.9,19.4c0.5,6.4,1,12.9,1.3,19.3c0.2,6.5-0.2,12.9-1,19.3
	c-0.9,6.5-2.1,12.9-3,19.4c-0.6,4.5-0.9,9-0.2,13.5c0.7,4.2,2.4,8.2,5.2,11.4c3.2,3.7,7.7,6,12.5,7c5.7,1.2,11.2,0.4,17,0.1
	c6.5-0.3,12.9-0.1,19.4,0.4c12.5,0.9,24.9,2.7,37.4,3.8c9.6,0.9,20.6,1.5,29.2-3.5c8-4.7,13.4-12.4,15.6-21.4
	c1.3-5.4,1.4-10.9,1.2-16.4c-0.3-6.4-0.5-12.7-0.7-19c-0.2-6.5-0.4-12.9-0.2-19.4c0.1-6.5,0.3-13,0.4-19.4c0.1-6.5,0.7-12.9,1-19.4
	c0.3-6.4,0.1-12.7-0.4-19.1c-0.3-3.2-0.5-6.4-0.2-9.6c0.2-3.2,0.6-6.3,1-9.5c0.8-6.4,1.2-12.8,1.9-19.2
	C150.7,59.1,151.5,52.6,151.8,46.1z"/>
<path d="M152,37c0.1,3.1,0.1,6.1-0.1,9.1c-0.4,6.5-1.2,13-2,19.5c-0.8,6.4-1.1,12.9-1.9,19.2c-0.4,3.2-0.8,6.3-1,9.5s0,6.4,0.2,9.6
	c0.5,6.4,0.8,12.7,0.4,19.1c-0.3,6.5-0.9,12.9-1,19.4s-0.2,13-0.4,19.4c-0.1,6.5,0.1,12.9,0.2,19.4c0.1,6.4,0.4,12.7,0.7,19
	c0.3,5.5,0.1,11-1.2,16.4c-2.2,9-7.6,16.7-15.6,21.4c-8.6,5.1-19.6,4.4-29.2,3.5c-12.5-1.1-24.9-2.9-37.4-3.8
	c-6.4-0.4-12.9-0.6-19.4-0.4c-5.7,0.3-11.3,1-16.9-0.1c-4.8-1-9.2-3.3-12.5-7c-2.8-3.2-4.5-7.2-5.2-11.4c-0.8-4.5-0.5-9.1,0.2-13.5
	c0.9-6.5,2.2-12.9,3-19.4c0.9-6.4,1.2-12.8,1-19.3c-0.2-6.4-0.8-12.9-1.3-19.3c-0.5-6.5-0.8-12.9-0.9-19.4c-0.1-6.4,0-12.9-0.4-19.3
	c-0.4-6.4-1.4-12.7-1.7-19.1S9.4,76.8,9.5,70.4C9.6,64,9.6,57.6,9.3,51.2c-0.3-6.3-0.7-12.7-0.2-19c0.4-4.8,1-9.6,3.9-13.6
	c2.3-3.1,5.7-5.3,9.2-6.8c3.8-1.6,8-2.4,12.1-2.8c6.1-0.5,12.4-0.3,18.5-0.1C59.3,9,65.9,9.3,72.4,9.4c1.9,0,3.8,0,5.7-0.1
	c0.5-0.1,1-0.1,1.4-0.1c0.9,0,1.7,0,2.6,0.1c1.5,0.1,3.1,0.5,4.6,0.7c1.6,0.2,3.2,0.4,4.8,0.6c1.5,0.2,3.2,0.2,4.7,0.3
	c0.6,0,1.3,0.1,1.9,0.1c0.3,0,0.6,0.1,0.9,0.2c0.2,0,0.5,0,0.7,0c5.7,0.3,11.5-0.1,17.2-0.6c4.7-0.4,9.4-0.9,14-0.2
	c4.3,0.6,8.4,2.2,11.5,5.4c3.3,3.6,7,7.6,8.3,12.4C151.9,31.1,151.8,34.1,152,37z M150.9,48.4c0.4-6,0.6-12.2-0.2-18.2
	c-0.7-5.4-4.7-9.7-8.2-13.5c-6.6-7.3-17.3-5.9-26.1-5.2c-5.7,0.4-11.5,0.9-17.2,0.4c-0.5,0-0.9-0.1-1.4-0.1c-0.7,0-1.4,0-2,0
	c-3.1-0.1-6.1-0.3-9.2-0.7c-1.5-0.2-3-0.6-4.6-0.6c-0.9,0-1.8,0-2.7-0.1c-1.8,0-3.6,0.1-5.3,0.1C61.4,10.3,48.8,9.4,36.2,10
	c-8,0.4-17.3,2.7-22.2,9.5c-3.1,4.2-3.4,9.6-3.7,14.7c-0.3,6.2,0.1,12.4,0.4,18.6c0.6,12.4-0.4,24.8,0.2,37.2
	c0.3,6.2,1.3,12.4,1.7,18.6c0.4,6.3,0.3,12.6,0.4,18.9c0.1,12.5,1.5,24.9,2,37.3c0.2,6.3,0.1,12.6-0.6,18.8
	c-0.7,6-1.8,12.1-2.7,18.1c-1.4,9.2-2.6,19.6,3.6,27.4c3.2,4,7.7,6.5,12.7,7.5c5.7,1.1,11.4,0.3,17.2,0c12.7-0.5,25.3,0.8,37.9,2.2
	c5.9,0.6,11.7,1.3,17.6,1.9c5,0.5,10,0.8,15,0.5c4.9-0.3,10-1.2,14.3-3.6c4.1-2.3,7.8-5.6,10.4-9.5c2.6-3.8,4.3-8,5.3-12.5
	c1.2-5.6,1.1-11.3,0.8-17c-0.4-6.2-0.4-12.4-0.7-18.6c-0.2-6.3-0.3-12.6-0.2-18.9c0.1-6.3,0.2-12.7,0.4-19c0.1-6.3,0.7-12.6,1-18.9
	c0.3-6.2,0.1-12.4-0.4-18.6c-0.2-3.1-0.5-6.1-0.3-9.2c0.1-3.1,0.5-6.2,0.9-9.3c0.8-6.2,1.2-12.5,1.9-18.8
	C149.7,60.9,150.5,54.7,150.9,48.4z"/>
<path class="st2" d="M150.8,30.2c0.8,6,0.6,12.2,0.2,18.2c-0.4,6.3-1.3,12.6-2,18.9c-0.8,6.2-1.2,12.5-1.9,18.8
	c-0.4,3.1-0.8,6.2-0.9,9.3c-0.1,3.1,0.1,6.1,0.3,9.2c0.5,6.2,0.7,12.4,0.4,18.6c-0.3,6.3-0.9,12.6-1,18.9c-0.1,6.3-0.2,12.7-0.4,19
	c-0.1,6.3,0,12.6,0.2,18.9c0.2,6.2,0.3,12.4,0.6,18.6c0.3,5.7,0.4,11.4-0.8,17c-1,4.5-2.7,8.7-5.3,12.5c-2.7,3.9-6.3,7.1-10.5,9.5
	c-4.3,2.5-9.4,3.3-14.3,3.6c-5,0.3-10,0-15-0.5c-5.9-0.5-11.7-1.2-17.6-1.9c-12.6-1.4-25.2-2.7-37.9-2.2c-5.7,0.2-11.4,1.1-17.2,0
	c-5-1-9.5-3.5-12.7-7.5c-6.2-7.8-5-18.2-3.6-27.4c1-6,2-12,2.7-18.1c0.8-6.3,0.9-12.5,0.6-18.9c-0.5-12.5-1.9-24.8-2-37.3
	c0-6.3,0-12.6-0.4-18.9c-0.4-6.2-1.4-12.4-1.7-18.6C10,77.5,11,65.1,10.4,52.7c-0.3-6.2-0.7-12.4-0.4-18.6
	c0.2-5.1,0.6-10.4,3.7-14.7c4.9-6.8,14.3-9.1,22.2-9.5c12.6-0.6,25.2,0.3,37.8,0.5c1.8,0,3.6-0.1,5.3-0.1c0.9,0.1,1.8,0.1,2.7,0.1
	c1.5,0,3.1,0.4,4.6,0.6c3.1,0.4,6.1,0.7,9.2,0.7c0.7,0,1.4,0,2.1,0c0.5,0.1,0.9,0.1,1.4,0.1c5.7,0.5,11.5,0.1,17.2-0.4
	c8.8-0.7,19.5-2.1,26.1,5.2C146,20.5,150.1,24.8,150.8,30.2z"/>
<path d="M53.4,0.2v1C47.6,1.1,41.9,1,36.1,1.1c-4.5,0.1-9,0.4-13.4,1.2c-4.4,0.9-9,2.3-12.5,5.3c-4.1,3.5-5.4,8.8-6.1,14
	C3.3,28,2.9,34.5,2.6,40.9c-0.4,6.9-1.2,13.8-1.2,20.7s0.5,13.9,1,20.8c0.6,7,1.2,14,1.6,21s0.6,14,0.9,21c0.3,7.1,0.6,14.3,1,21.4
	c0.5,6.9,1,13.7,1.4,20.6c0.3,6.9,0.4,14-0.5,20.9c-0.8,6-2.6,11.7-4,17.6c-0.1,0.5-0.3,1-0.4,1.5l-1-0.2c1.3-5.6,3-11.1,4-16.6
	c1.2-7,1.2-14.3,0.9-21.3c-0.2-7.2-0.9-14.4-1.4-21.5c-1-14.6-1.2-29.2-2.1-43.8C2,88.7,0,74.4,0.1,60C0.2,52.9,1,45.7,1.4,38.5
	c0.3-6.3,0.6-12.8,1.7-19c0.8-5,2.5-9.7,6.5-13c3.5-2.8,7.9-4.3,12.2-5.1c4.5-0.9,9.1-1.2,13.7-1.3C41.6-0.1,47.5,0.1,53.4,0.2z"/>
</svg>
