<?xml version="1.0" encoding="utf-8"?>
<!-- Generator: Adobe Illustrator 25.0.1, SVG Export Plug-In . SVG Version: 6.00 Build 0)  -->
<svg version="1.1" id="Layer_1" xmlns="http://www.w3.org/2000/svg" xmlns:xlink="http://www.w3.org/1999/xlink" x="0px" y="0px"
	 viewBox="0 0 22.4 26.4" style="enable-background:new 0 0 22.4 26.4;" xml:space="preserve">
<style type="text/css">
	.st0{fill:#F68357;stroke:#000000;stroke-width:0.4843;stroke-miterlimit:1.3333;}
	.st1{fill:#F9C05D;stroke:#000000;stroke-width:0.4843;stroke-miterlimit:1.3333;}
</style>
<path class="st0" d="M2.2,25.1c1.5,1.1,3.5,1.4,5.4,0.9c1.8-0.4,3.4-1.5,4.8-2.8s2.5-2.8,3.7-4.3c1.7-2.1,3.3-4.2,4.5-6.5
	c1.2-2.4,1.9-5.1,1.5-7.7c-0.2-1.2-0.6-2.4-1.5-3.2c-1.3-1.3-3.5-1.5-5.2-0.9c-1.7,0.7-3,2.2-3.8,3.9c-0.7,1.6-0.9,3.4-1.8,5
	c-1.2,2.1-3.4,3.4-5.4,4.8C1.3,16.7-1.9,21.9,2.2,25.1z"/>
<path class="st1" d="M4,24.2c0.8,0.5,1.8,0.7,2.7,0.8c0.2,0,0.5,0,0.7-0.1c0.3-0.2,0.2-0.7,0-1s-0.6-0.4-0.9-0.6
	c-0.5-0.3-1-0.6-1.2-1.2c-0.2-0.5,0.1-1.3,0.6-1.4c0.6-0.1,1.2,0.4,1.4,1c0.3,0.6,0.5,1.2,0.9,1.6c0.5,0.4,1.2,0.4,1.7,0
	s0.6-1.1,0.3-1.7C10,21,9.5,20.8,9,20.4c-0.4-0.4-0.7-1.1-0.3-1.5c0.3-0.3,0.8-0.2,1.2,0s0.6,0.6,0.9,0.8c0.8,0.7,2,0.7,2.8,0.2
	c1.1-0.8,0.5-2.2-0.3-3c-0.4-0.4-0.9-0.7-1.4-1c-0.3-0.1-0.5-0.3-0.8-0.5c-0.2-0.2-0.4-0.5-0.4-0.8s0.2-0.6,0.5-0.7
	c0.2,0,0.5,0.1,0.7,0.2c0.6,0.4,1.1,0.9,1.6,1.3c0.5,0.4,2.1,1.8,2.6,0.8c0.2-0.3,0.1-0.7-0.1-0.9c-0.2-0.3-0.5-0.4-0.8-0.7
	c-0.4-0.2-0.7-0.5-1-0.8c-0.4-0.3-0.7-0.9-0.4-1.3c0.2-0.3,0.7-0.3,1-0.1c0.9,0.5,1,1.9,2,2.2c0.6,0.1,1.2-0.2,1.5-0.7
	c0.6-1,0.1-2.5-0.9-2.9c-0.5-0.2-1.1-0.2-1.7-0.4c-0.5-0.1-1.1-0.4-1.3-0.9c0-0.1-0.1-0.2,0-0.4c0.1-0.4,0.6-0.5,1-0.3
	c0.7,0.2,1.3,0.7,1.9,1s1.5,0.4,2-0.1c0.3-0.3,0.4-0.8,0.1-1.1c-0.2-0.2-0.6-0.2-0.9-0.2s-0.6-0.2-0.7-0.5c-0.1-0.4,0.4-0.7,0.9-0.6
	c0.4,0,0.8,0.2,1.2,0.1c0.8-0.1,1-1.2,0.9-1.9c-0.2-1.3-1-2.5-2.2-3.1s-2.7-0.4-3.7,0.5c-0.1,0.1-0.1,0.1-0.2,0.2
	c0,0.2,0.1,0.4,0.3,0.5c0.9,0.6,2.3,0.6,3,1.5c0.2,0.3,0.4,0.8,0.1,1c-0.2,0.2-0.5,0.2-0.7,0.2c-0.9,0-1.7-0.6-2.4-1.3
	c-0.2-0.2-0.4-0.5-0.7-0.5c-0.5-0.1-1.7,0.8-1.1,1.3c0.2,0.1,0.5,0.2,0.7,0.2c0.4,0.1,0.8,0.2,1.1,0.5s0.3,0.8,0,1.1
	S14.2,8,13.9,7.9c-0.4-0.1-0.8-0.4-1.2-0.3c-0.8,0.1-1.1,1-0.6,1.6c0.2,0.3,0.6,0.5,1,0.6s0.7,0.3,1,0.6c0.1,0.1,0.2,0.2,0.2,0.4
	c0.1,0.4-0.4,0.8-0.8,0.8c-0.4,0-0.8-0.3-1.2-0.5s-0.7-0.6-1.1-0.6c-0.3-0.1-0.6,0-0.9,0.1c-0.1,0-0.3,0.2-0.3,0.4
	c0,0.3,0.2,0.5,0.4,0.7c0.2,0.1,0.5,0.2,0.8,0.3s0.6,0.2,0.7,0.5c0.1,0.1,0.1,0.3,0,0.4c-0.1,0.1-0.2,0.2-0.3,0.2
	c-0.3,0.1-0.6,0.1-0.9,0c-0.6-0.2-1.1-0.7-1.8-0.7c-0.3,0-0.6,0.2-0.8,0.4c-0.2,0.4,0,0.8,0.3,1.1c0.2,0.3,0.6,0.5,0.9,0.8
	c0.2,0.2,0.3,0.4,0.4,0.6C9.9,15.5,10,15.7,10,16c0,0.3-0.1,0.5-0.3,0.7c-0.3,0.2-0.8,0.1-1.1-0.1c-0.5-0.3-0.8-0.7-1.3-1
	c-0.6-0.3-2-0.7-2.5,0c-0.2,0.2-0.2,0.5-0.1,0.8c0.2,0.5,0.9,0.8,1.4,1c0.4,0.2,0.8,0.6,1,1.1C7,18.7,7.1,19,7,19.3
	s-0.5,0.4-0.9,0.3s-0.8-0.3-1.2-0.5s-0.7-0.5-1.1-0.5c-0.6-0.1-1.2,0.1-1.4,0.7C1.9,21.2,2.3,23.2,4,24.2z"/>
</svg>
