<?xml version="1.0" encoding="utf-8"?>
<!-- Generator: Adobe Illustrator 25.0.1, SVG Export Plug-In . SVG Version: 6.00 Build 0)  -->
<svg version="1.1" id="Layer_1" xmlns="http://www.w3.org/2000/svg" xmlns:xlink="http://www.w3.org/1999/xlink" x="0px" y="0px"
	 viewBox="0 0 28.7 18.8" style="enable-background:new 0 0 28.7 18.8;" xml:space="preserve">
<style type="text/css">
	.st0{fill:#F68357;stroke:#000000;stroke-width:0.4843;stroke-miterlimit:1.3333;}
	.st1{fill:#F9C05D;stroke:#000000;stroke-width:0.4843;stroke-miterlimit:1.3333;}
</style>
<path class="st0" d="M0.7,3.2C-0.1,4.9,0.2,7,1,8.6c0.9,1.7,2.3,3,3.8,4c1.6,1,3.3,1.8,5,2.6c2.4,1.1,4.8,2.3,7.4,2.9
	c2.6,0.7,5.4,0.7,7.8-0.3c1.1-0.5,2.2-1.2,2.8-2.2c0.9-1.6,0.7-3.7-0.4-5.2c-1-1.5-2.8-2.4-4.7-2.8C21,7.3,19.1,7.5,17.5,7
	c-2.3-0.7-4.1-2.5-5.9-4.1C8.6,0.4,2.7-1.6,0.7,3.2z"/>
<path class="st1" d="M1.9,4.7C1.7,5.6,1.7,6.6,1.8,7.5c0,0.2,0.1,0.5,0.3,0.7c0.3,0.2,0.8,0,1-0.3s0.2-0.7,0.4-1.1
	c0.1-0.5,0.4-1.1,0.9-1.4s1.2-0.2,1.5,0.3C6.2,6.3,5.8,7,5.3,7.4C4.8,7.7,4.2,8.1,3.9,8.6c-0.2,0.5-0.1,1.3,0.4,1.6s1.2,0.3,1.7-0.1
	c0.4-0.4,0.5-1,0.8-1.5C7,8.2,7.7,7.8,8.1,8.1c0.4,0.2,0.4,0.7,0.2,1.1c-0.1,0.4-0.4,0.7-0.6,1.1c-0.4,0.9-0.2,2.1,0.5,2.8
	c1,0.9,2.3,0,2.8-1c0.3-0.5,0.5-1.1,0.6-1.7c0.1-0.3,0.2-0.6,0.3-0.9C12,9.3,12.3,9,12.6,8.9s0.6,0.1,0.8,0.4c0.1,0.2,0,0.5,0,0.7
	c-0.2,0.6-0.6,1.2-0.9,1.8c-0.3,0.6-1.2,2.4-0.2,2.7c0.3,0.1,0.7-0.1,0.9-0.3c0.2-0.3,0.3-0.6,0.4-0.9c0.1-0.4,0.3-0.7,0.5-1.1
	c0.2-0.4,0.7-0.9,1.2-0.7c0.3,0.1,0.4,0.6,0.3,0.9c-0.3,1-1.7,1.5-1.7,2.5c0,0.6,0.5,1.1,1.1,1.3c1.1,0.4,2.4-0.4,2.7-1.6
	c0.1-0.5,0-1.1,0-1.7c0-0.6,0.1-1.2,0.6-1.5c0.1-0.1,0.2-0.1,0.4-0.1c0.4,0,0.6,0.5,0.6,0.9c0,0.7-0.4,1.4-0.5,2
	c-0.1,0.7,0,1.5,0.6,1.9c0.4,0.2,0.9,0.2,1.1-0.2c0.1-0.3,0.1-0.6,0-0.9c0-0.3,0-0.7,0.3-0.8c0.4-0.2,0.8,0.3,0.8,0.7
	c0.1,0.4,0,0.9,0.1,1.2c0.3,0.7,1.3,0.7,2,0.4c1.2-0.5,2.2-1.5,2.5-2.8S26,11,24.9,10.3c-0.1-0.1-0.2-0.1-0.3-0.1
	c-0.2,0-0.4,0.2-0.4,0.4c-0.4,1-0.1,2.3-0.7,3.3c-0.2,0.3-0.6,0.5-1,0.4c-0.2-0.1-0.3-0.4-0.4-0.7c-0.2-0.9,0.2-1.8,0.7-2.6
	c0.2-0.2,0.4-0.5,0.3-0.9c0-0.5-1.2-1.5-1.5-0.8c-0.1,0.2-0.1,0.5-0.1,0.7c0,0.4,0,0.8-0.2,1.1s-0.7,0.5-1,0.3
	c-0.4-0.2-0.4-0.7-0.3-1.1c0.1-0.4,0.2-0.8,0.1-1.2c-0.2-0.7-1.3-0.8-1.7-0.2C18.1,9.4,18,9.8,18,10.2c-0.1,0.4-0.1,0.8-0.3,1.1
	c-0.1,0.1-0.2,0.3-0.4,0.4c-0.4,0.2-0.9-0.2-1-0.6c-0.1-0.4,0.1-0.9,0.3-1.3C16.7,9.4,17,9,17,8.6c0-0.3-0.1-0.6-0.3-0.8
	c-0.1-0.2-0.4-0.3-0.6-0.3c-0.3,0-0.5,0.3-0.6,0.6s0,0.6,0,0.9c0,0.3-0.1,0.6-0.3,0.8c-0.1,0.1-0.2,0.1-0.4,0.1
	c-0.1,0-0.2-0.1-0.3-0.2c-0.2-0.2-0.3-0.6-0.2-0.9c0.1-0.6,0.5-1.2,0.2-1.9c-0.1-0.3-0.3-0.5-0.6-0.6c-0.4-0.1-0.7,0.2-1,0.5
	c-0.2,0.3-0.4,0.7-0.6,1C12.2,7.9,12,8,11.9,8.2c-0.2,0.2-0.4,0.4-0.7,0.4c-0.2,0.1-0.5,0-0.8-0.1c-0.3-0.2-0.2-0.7-0.2-1.1
	c0.1-0.6,0.5-1,0.6-1.5C11,5.2,11,3.7,10.3,3.4C10,3.3,9.7,3.3,9.5,3.5C9,3.7,9,4.4,8.8,4.9C8.7,5.4,8.4,5.8,8,6.1
	C7.8,6.3,7.5,6.5,7.2,6.4C6.9,6.3,6.7,5.9,6.7,5.6c0-0.4,0.1-0.8,0.3-1.2C7.1,4,7.2,3.6,7.2,3.1c0-0.6-0.4-1.2-1-1.2
	C4.4,1.9,2.5,2.8,1.9,4.7z"/>
</svg>
