<?xml version="1.0" encoding="utf-8"?>
<!-- Generator: Adobe Illustrator 25.0.1, SVG Export Plug-In . SVG Version: 6.00 Build 0)  -->
<svg version="1.1" id="Layer_1" xmlns="http://www.w3.org/2000/svg" xmlns:xlink="http://www.w3.org/1999/xlink" x="0px" y="0px"
	 viewBox="0 0 25.6 23.4" style="enable-background:new 0 0 25.6 23.4;" xml:space="preserve">
<style type="text/css">
	.st0{fill:#F68357;stroke:#000000;stroke-width:0.4843;stroke-miterlimit:1.3333;}
	.st1{fill:#F9C05D;stroke:#000000;stroke-width:0.4843;stroke-miterlimit:1.3333;}
</style>
<path class="st0" d="M24,21.4c1.2-1.4,1.6-3.4,1.3-5.3c-0.3-1.8-1.3-3.5-2.5-5c-1.2-1.4-2.6-2.7-4-3.9c-2-1.8-3.9-3.6-6.2-4.9
	C10.3,0.9,7.7,0,5,0.3C3.8,0.4,2.6,0.8,1.7,1.6C0.3,2.9-0.1,5,0.6,6.7c0.6,1.8,2,3.2,3.7,4c1.6,0.8,3.4,1.2,4.8,2.1
	c2,1.3,3.2,3.6,4.5,5.6C15.6,21.8,20.6,25.4,24,21.4z"/>
<path class="st1" d="M23.2,19.6c0.5-0.8,0.8-1.7,0.9-2.7c0-0.2,0.1-0.5-0.1-0.7c-0.2-0.3-0.7-0.2-1,0c-0.3,0.2-0.5,0.6-0.6,0.9
	c-0.3,0.5-0.7,1-1.3,1.1c-0.5,0.1-1.3-0.1-1.3-0.7c-0.1-0.6,0.5-1.1,1-1.4c0.6-0.2,1.3-0.4,1.7-0.9s0.4-1.2,0.1-1.7
	c-0.4-0.5-1.1-0.7-1.6-0.4c-0.5,0.2-0.8,0.8-1.2,1.2s-1.1,0.6-1.5,0.2c-0.2-0.3-0.1-0.8,0.1-1.2c0.3-0.3,0.6-0.5,0.9-0.9
	c0.7-0.7,0.9-2,0.3-2.8c-0.7-1.2-2.2-0.6-3,0.1c-0.4,0.4-0.8,0.9-1.1,1.4c-0.2,0.2-0.3,0.5-0.6,0.7c-0.2,0.2-0.5,0.4-0.8,0.3
	c-0.3,0-0.6-0.2-0.6-0.6c0-0.2,0.1-0.5,0.2-0.7c0.4-0.6,0.9-1,1.4-1.5s1.9-1.9,1-2.6c-0.3-0.2-0.6-0.1-0.9,0.1
	c-0.3,0.2-0.5,0.5-0.7,0.7c-0.3,0.3-0.5,0.6-0.8,0.9c-0.4,0.4-0.9,0.7-1.3,0.4c-0.3-0.2-0.2-0.7,0-1c0.5-0.9,2-0.9,2.3-1.9
	c0.2-0.6-0.1-1.2-0.6-1.5c-1-0.7-2.5-0.3-3,0.8c-0.2,0.5-0.3,1.1-0.4,1.6c-0.1,0.5-0.5,1.1-1,1.3c-0.1,0-0.2,0-0.4,0
	C8.9,8,8.9,7.4,9,7.1c0.3-0.6,0.8-1.2,1.1-1.8s0.5-1.5,0-2C9.8,3,9.3,2.9,9,3.2C8.8,3.4,8.8,3.7,8.7,4.1c0,0.3-0.2,0.7-0.5,0.7
	C7.8,4.9,7.6,4.3,7.6,3.9s0.3-0.8,0.2-1.2c-0.1-0.8-1.1-1-1.8-1c-1.3,0.1-2.6,0.8-3.2,2C2.1,4.8,2.2,6.4,3,7.4
	c0.1,0.1,0.1,0.2,0.2,0.2c0.2,0.1,0.4-0.1,0.5-0.3c0.7-0.9,0.8-2.2,1.7-2.9c0.3-0.2,0.8-0.3,1-0.1S6.6,4.8,6.6,5
	C6.5,5.9,5.9,6.7,5.2,7.3C5,7.5,4.7,7.7,4.6,8C4.5,8.5,5.3,9.8,5.9,9.2C6.1,9,6.1,8.8,6.2,8.5c0.1-0.4,0.2-0.8,0.6-1
	c0.3-0.3,0.8-0.3,1.1,0c0.2,0.3,0.2,0.8,0,1.1C7.7,9,7.5,9.3,7.5,9.8c0,0.8,1,1.1,1.6,0.7c0.3-0.2,0.5-0.6,0.7-0.9
	c0.2-0.4,0.3-0.7,0.6-1c0.1-0.1,0.3-0.2,0.4-0.2c0.4-0.1,0.8,0.4,0.8,0.9c0,0.4-0.3,0.8-0.6,1.2c-0.3,0.3-0.6,0.6-0.7,1.1
	c-0.1,0.3-0.1,0.6,0,0.9c0.1,0.2,0.2,0.4,0.5,0.5s0.6-0.1,0.7-0.4c0.1-0.2,0.2-0.5,0.3-0.8s0.3-0.5,0.5-0.7c0.1-0.1,0.3-0.1,0.4,0
	c0.1,0.1,0.2,0.2,0.2,0.3c0.1,0.3,0.1,0.6,0,0.9c-0.2,0.6-0.8,1-0.8,1.7c0,0.3,0.1,0.6,0.4,0.8c0.3,0.2,0.8,0.1,1.1-0.2
	c0.3-0.2,0.5-0.6,0.8-0.8c0.2-0.1,0.4-0.3,0.6-0.4c0.3-0.1,0.5-0.2,0.8-0.2c0.3,0,0.5,0.1,0.7,0.4c0.2,0.3,0,0.7-0.1,1.1
	c-0.3,0.5-0.8,0.8-1.1,1.3c-0.4,0.6-0.9,2-0.2,2.5c0.2,0.2,0.5,0.2,0.8,0.2c0.6-0.2,0.8-0.8,1.1-1.3c0.3-0.4,0.7-0.7,1.1-0.9
	c0.3-0.1,0.6-0.1,0.8,0c0.3,0.2,0.4,0.6,0.3,0.9c-0.1,0.4-0.3,0.8-0.6,1.1c-0.2,0.3-0.5,0.7-0.6,1.1c-0.2,0.6,0,1.2,0.6,1.4
	C20.1,21.5,22.1,21.2,23.2,19.6z"/>
</svg>
